HIERARCHY
ROOT Hips
{
  OFFSET -27.497 91.921 -101.422
  CHANNELS 6 Xposition Yposition Zposition Zrotation Xrotation Yrotation
  JOINT LeftUpLeg
  {
    OFFSET 9.63379 -0.250344 0
    CHANNELS 6 Xposition Yposition Zposition Zrotation Xrotation Yrotation
    JOINT LeftLeg
    {
      OFFSET 0 -40.4779 -1.71313
      CHANNELS 6 Xposition Yposition Zposition Zrotation Xrotation Yrotation
      JOINT LeftFoot
      {
        OFFSET 0.0126047 -40.4416 -0.864524
        CHANNELS 6 Xposition Yposition Zposition Zrotation Xrotation Yrotation
        JOINT LeftToeBase
        {
          OFFSET -0.183287 -12.1867 8.28226
          CHANNELS 6 Xposition Yposition Zposition Zrotation Xrotation Yrotation
          End Site
          {
            OFFSET 0 0 9.15615
          }
        }
      }
    }
  }
}
MOTION
Frames:	28
Frame Time:	0.00833333
-27.4908 91.9448 -101.821 1.32197 1.91591 5.48497 9.63379 -0.250344 -7.15256e-007 1.04952 -2.71146 9.22982 0 -40.4779 -1.71313 1.16767 3.58284 -0.0598622 0.0126047 -40.4416 -0.864524 0.128648 -0.721796 -0.0021532 -0.183287 -12.1867 8.28226 1.11875e-011 -6.27086e-012 6.25742e-011 
-27.4913 91.9453 -101.817 1.31979 1.90733 5.48562 9.63379 -0.250344 -7.15256e-007 1.05535 -2.71329 9.23482 0 -40.4779 -1.71313 1.16766 3.60766 -0.0598412 0.0126047 -40.4416 -0.864524 0.128648 -0.732401 -0.00215321 -0.183287 -12.1867 8.28226 1.11875e-011 -6.27086e-012 6.25742e-011 
-27.4918 91.9458 -101.812 1.31734 1.89845 5.48724 9.63379 -0.250344 -7.15256e-007 1.06183 -2.71608 9.24016 0 -40.4779 -1.71313 1.16762 3.63485 -0.0598187 0.0126047 -40.4416 -0.864524 0.128647 -0.74372 -0.00215321 -0.183287 -12.1867 8.28226 1.11875e-011 -6.27086e-012 6.25742e-011 
-27.4922 91.9458 -101.808 1.3167 1.89188 5.48719 9.63379 -0.250344 -7.15256e-007 1.0651 -2.71464 9.2434 0 -40.4779 -1.71313 1.16753 3.65048 -0.0597937 0.0126047 -40.4416 -0.864524 0.128647 -0.750566 -0.00215321 -0.183287 -12.1867 8.28226 1.11875e-011 -6.27086e-012 6.25742e-011 
-27.4921 91.9452 -101.803 1.31857 1.88924 5.48542 9.63379 -0.250344 -7.15256e-007 1.06375 -2.70802 9.24342 0 -40.4779 -1.71313 1.1674 3.64976 -0.0599513 0.0126047 -40.4416 -0.864524 0.128647 -0.750974 -0.00215321 -0.183287 -12.1867 8.28226 1.11875e-011 -6.27086e-012 6.25742e-011 
-27.4918 91.944 -101.799 1.32177 1.88883 5.48313 9.63379 -0.250344 -7.15256e-007 1.05997 -2.69882 9.24169 0 -40.4779 -1.71313 1.16723 3.64048 -0.0602013 0.0126047 -40.4416 -0.864524 0.128647 -0.747903 -0.00215321 -0.183287 -12.1867 8.28226 1.11875e-011 -6.27086e-012 6.25742e-011 
-27.4916 91.9428 -101.794 1.32564 1.88827 5.47953 9.63379 -0.250344 -7.15256e-007 1.05526 -2.68729 9.23962 0 -40.4779 -1.71313 1.16699 3.62759 -0.0601292 0.0126047 -40.4416 -0.864524 0.128647 -0.743558 -0.00215321 -0.183287 -12.1867 8.28226 1.11875e-011 -6.27086e-012 6.25742e-011 
-27.4915 91.9419 -101.789 1.32948 1.88521 5.47381 9.63379 -0.250344 -7.15256e-007 1.05113 -2.67365 9.23863 0 -40.4779 -1.71313 1.16667 3.61603 -0.0593208 0.0126047 -40.4416 -0.864524 0.128648 -0.740139 -0.00215321 -0.183287 -12.1867 8.28226 1.11875e-011 -6.27086e-012 6.25742e-011 
-27.4917 91.9415 -101.785 1.33396 1.8775 5.46464 9.63379 -0.250344 -7.15256e-007 1.04729 -2.65534 9.2387 0 -40.4779 -1.71313 1.16501 3.60549 -0.0569725 0.0126047 -40.4416 -0.864524 0.128648 -0.737868 -0.00215321 -0.183287 -12.1867 8.28226 1.11875e-011 -6.27086e-012 6.25742e-011 
-27.492 91.9413 -101.78 1.33918 1.8669 5.4528 9.63379 -0.250344 -7.15256e-007 1.04315 -2.63312 9.23891 0 -40.4779 -1.71313 1.16198 3.59387 -0.0535362 0.0126047 -40.4416 -0.864524 0.128648 -0.735693 -0.00215321 -0.183287 -12.1867 8.28226 1.11875e-011 -6.27086e-012 6.25742e-011 
-27.4924 91.9413 -101.775 1.34354 1.85691 5.44076 9.63379 -0.250344 -7.15256e-007 1.03975 -2.6122 9.23925 0 -40.4779 -1.71313 1.15937 3.58347 -0.0504813 0.0126047 -40.4416 -0.864524 0.128648 -0.733906 -0.00215321 -0.183287 -12.1867 8.28226 1.11875e-011 -6.27086e-012 6.25742e-011 
-27.4931 91.9412 -101.769 1.34546 1.851 5.43096 9.63379 -0.250344 -7.15256e-007 1.0381 -2.59782 9.23974 0 -40.4779 -1.71313 1.15896 3.57658 -0.0492768 0.0126047 -40.4416 -0.864524 0.128648 -0.732798 -0.00215321 -0.183287 -12.1867 8.28226 1.11875e-011 -6.27086e-012 6.25742e-011 
-27.4939 91.941 -101.763 1.34335 1.85186 5.42538 9.63379 -0.250344 -7.15256e-007 1.03935 -2.59411 9.24038 0 -40.4779 -1.71313 1.16213 3.57531 -0.0510109 0.0126047 -40.4416 -0.864524 0.128648 -0.732861 -0.00215321 -0.183287 -12.1867 8.28226 1.11875e-011 -6.27086e-012 6.25742e-011 
-27.495 91.9409 -101.757 1.33842 1.85706 5.42226 9.63379 -0.250344 -7.15256e-007 1.04264 -2.59739 9.24111 0 -40.4779 -1.71313 1.16764 3.57794 -0.0546679 0.0126047 -40.4416 -0.864524 0.128648 -0.733803 -0.00215321 -0.183287 -12.1867 8.28226 1.11875e-011 -6.27086e-012 6.25742e-011 
-27.4962 91.9408 -101.75 1.33341 1.86236 5.41849 9.63379 -0.250344 -7.15256e-007 1.04606 -2.60109 9.24186 0 -40.4779 -1.71313 1.17331 3.58102 -0.0585611 0.0126047 -40.4416 -0.864524 0.128648 -0.734734 -0.00215321 -0.183287 -12.1867 8.28226 1.11875e-011 -6.27086e-012 6.25742e-011 
-27.4976 91.9408 -101.745 1.33103 1.86355 5.41097 9.63379 -0.250344 -7.15256e-007 1.04767 -2.59869 9.24253 0 -40.4779 -1.71313 1.177 3.58107 -0.061004 0.0126047 -40.4416 -0.864524 0.128648 -0.734767 -0.00215321 -0.183287 -12.1867 8.28226 1.11875e-011 -6.27086e-012 6.25742e-011 
-27.4993 91.9409 -101.741 1.33264 1.85781 5.39762 9.63379 -0.250344 -7.15256e-007 1.04653 -2.58618 9.24309 0 -40.4779 -1.71313 1.178 3.57646 -0.0612669 0.0126047 -40.4416 -0.864524 0.128648 -0.733637 -0.00215321 -0.183287 -12.1867 8.28226 1.11875e-011 -6.27086e-012 6.25742e-011 
-27.5012 91.9413 -101.737 1.33657 1.84795 5.38051 9.63379 -0.250344 -7.15256e-007 1.04382 -2.56781 9.24352 0 -40.4779 -1.71313 1.1775 3.56926 -0.0603425 0.0126047 -40.4416 -0.864524 0.128648 -0.731827 -0.00215321 -0.183287 -12.1867 8.28226 1.11875e-011 -6.27086e-012 6.25742e-011 
-27.503 91.9416 -101.734 1.34101 1.8382 5.36277 9.63379 -0.250344 -7.15256e-007 1.04075 -2.54939 9.24384 0 -40.4779 -1.71313 1.1762 3.56163 -0.0591281 0.0126047 -40.4416 -0.864524 0.128648 -0.729571 -0.0021532 -0.183287 -12.1867 8.28226 1.11875e-011 -6.27086e-012 6.25742e-011 
-27.5044 91.9418 -101.731 1.34416 1.83281 5.34751 9.63379 -0.250344 -7.15256e-007 1.03853 -2.53677 9.24406 0 -40.4779 -1.71313 1.17482 3.55571 -0.0585211 0.0126047 -40.4416 -0.864524 0.128648 -0.727102 -0.0021532 -0.183287 -12.1867 8.28226 1.11875e-011 -6.27086e-012 6.25742e-011 
-27.5051 91.9419 -101.728 1.34622 1.83341 5.3346 9.63379 -0.250344 -7.15256e-007 1.03648 -2.53151 9.24291 0 -40.4779 -1.71313 1.17325 3.55084 -0.0585169 0.0126047 -40.4416 -0.864524 0.128648 -0.723624 -0.0021532 -0.183287 -12.1867 8.28226 1.11875e-011 -6.27086e-012 6.25742e-011 
-27.5053 91.942 -101.725 1.34793 1.83759 5.3227 9.63379 -0.250344 -7.15256e-007 1.03426 -2.53049 9.24059 0 -40.4779 -1.71313 1.17122 3.54628 -0.0585127 0.0126047 -40.4416 -0.864524 0.128648 -0.7193 -0.0021532 -0.183287 -12.1867 8.28226 1.11875e-011 -6.27086e-012 6.25742e-011 
-27.5055 91.9419 -101.723 1.34829 1.84343 5.3131 9.63379 -0.250344 -7.15256e-007 1.03369 -2.53254 9.23933 0 -40.4779 -1.71313 1.16909 3.54409 -0.0585087 0.0126047 -40.4416 -0.864524 0.128648 -0.715799 -0.0021532 -0.183287 -12.1867 8.28226 1.11875e-011 -6.27086e-012 6.25742e-011 
-27.5061 91.9416 -101.72 1.34627 1.84903 5.3071 9.63379 -0.250344 -7.15256e-007 1.03655 -2.53645 9.24138 0 -40.4779 -1.71313 1.16725 3.54631 -0.058505 0.0126047 -40.4416 -0.864524 0.128648 -0.71479 -0.0021532 -0.183287 -12.1867 8.28226 1.11875e-011 -6.27086e-012 6.25742e-011 
-27.5072 91.9408 -101.716 1.34041 1.85411 5.30587 9.63379 -0.250344 -7.15256e-007 1.04508 -2.54283 9.24918 0 -40.4779 -1.71313 1.1654 3.55532 -0.0585018 0.0126047 -40.4416 -0.864524 0.128648 -0.717219 -0.0021532 -0.183287 -12.1867 8.28226 1.11875e-011 -6.27086e-012 6.25742e-011 
-27.5085 91.9397 -101.712 1.33164 1.8596 5.30844 9.63379 -0.250344 -7.15256e-007 1.05774 -2.55202 9.26091 0 -40.4779 -1.71313 1.16346 3.56942 -0.058499 0.0126047 -40.4416 -0.864524 0.128648 -0.722029 -0.0021532 -0.183287 -12.1867 8.28226 1.11875e-011 -6.27086e-012 6.25742e-011 
-27.51 91.9386 -101.707 1.32259 1.86545 5.3129 9.63379 -0.250344 -7.15256e-007 1.07067 -2.56239 9.27245 0 -40.4779 -1.71313 1.16219 3.58454 -0.0584963 0.0126047 -40.4416 -0.864524 0.128648 -0.727886 -0.0021532 -0.183287 -12.1867 8.28226 1.11875e-011 -6.27086e-012 6.25742e-011 
-27.5115 91.9375 -101.703 1.31587 1.8716 5.31731 9.63379 -0.250344 -7.15256e-007 1.08002 -2.57235 9.27966 0 -40.4779 -1.71313 1.16234 3.5966 -0.0584934 0.0126047 -40.4416 -0.864524 0.128648 -0.733457 -0.00215321 -0.183287 -12.1867 8.28226 1.11875e-011 -6.27086e-012 6.25742e-011 
